<svg width="1600" height="180" viewBox="0 0 1600 180" fill="none" xmlns="http://www.w3.org/2000/svg">
  <defs>
    <linearGradient id="wavePrimary" x1="0" y1="0" x2="1600" y2="0" gradientUnits="userSpaceOnUse">
      <stop offset="0%" stop-color="#56C8C8"/>
      <stop offset="33%" stop-color="#FEDA33"/>
      <stop offset="66%" stop-color="#AEE47B"/>
      <stop offset="100%" stop-color="#FA0500"/>
    </linearGradient>
    <linearGradient id="waveSecondary" x1="0" y1="0" x2="1600" y2="0" gradientUnits="userSpaceOnUse">
      <stop offset="0%" stop-color="#3CB3B3"/>
      <stop offset="34%" stop-color="#F1C625"/>
      <stop offset="67%" stop-color="#8DCE57"/>
      <stop offset="100%" stop-color="#D90400"/>
    </linearGradient>
  </defs>
  <path d="M0 66C124 74 219 102 332 110C465 120 567 84 712 72C874 59 1002 92 1153 101C1293 109 1423 92 1600 54V180H0V66Z" fill="url(#wavePrimary)"/>
  <path d="M0 89C130 98 242 128 367 137C497 146 611 109 741 96C884 82 1016 111 1158 124C1286 136 1410 128 1600 90V180H0V89Z" fill="url(#waveSecondary)"/>
</svg>
