<svg width="1440" height="120" viewBox="0 0 1440 120" fill="none" xmlns="http://www.w3.org/2000/svg">
  <path d="M0 36C96 53 192 70 288 68C384 66 480 45 576 46C672 47 768 71 864 75C960 79 1056 62 1152 52C1248 42 1344 39 1440 47V120H0V36Z" fill="#FEDA33" fill-opacity="0.2"/>
  <path d="M0 58C96 81 192 105 288 103C384 101 480 73 576 70C672 67 768 89 864 92C960 95 1056 79 1152 66C1248 53 1344 44 1440 53V120H0V58Z" fill="#56C8C8" fill-opacity="0.14"/>
  <path d="M0 78C120 92 240 107 360 106C480 105 600 89 720 90C840 91 960 109 1080 110C1200 111 1320 95 1440 84V120H0V78Z" fill="#AEE47B" fill-opacity="0.16"/>
</svg>
