<svg width="1600" height="220" viewBox="0 0 1600 220" fill="none" xmlns="http://www.w3.org/2000/svg">
  <path d="M0 220V148L118 138L212 102L321 130L420 84L517 129L621 73L726 136L842 92L966 132L1087 80L1202 134L1302 108L1407 143L1505 124L1600 145V220H0Z" fill="#8E9FB0"/>
  <path d="M0 220V165L84 156L175 122L281 148L392 101L508 153L616 111L724 159L834 119L954 161L1066 116L1189 162L1308 131L1425 171L1518 154L1600 165V220H0Z" fill="#5F7992"/>
  <path d="M0 220V181L95 171L196 141L301 179L404 129L519 182L620 147L734 188L846 150L958 187L1070 143L1184 188L1292 164L1406 198L1515 184L1600 190V220H0Z" fill="#173861"/>
</svg>
